<svg width="46" height="46" viewBox="0 0 46 46" fill="none" xmlns="http://www.w3.org/2000/svg">
<circle cx="23" cy="23" r="23" fill="#CEE5D9"/>
<path d="M32.2827 20.8948L32.7968 20.0642L33.6274 20.5783L33.1133 21.4089L32.2827 20.8948Z" fill="#006D77"/>
<path d="M29.0586 23.582L29.5728 22.7512L30.4036 23.2655L29.8894 24.0962L29.0586 23.582Z" fill="#006D77"/>
<path d="M30.886 23.1521L31.4001 22.3215L32.2307 22.8356L31.7166 23.6662L30.886 23.1521Z" fill="#006D77"/>
<path d="M30.4556 21.3245L30.9696 20.4939L31.8004 21.0081L31.2863 21.8388L30.4556 21.3245Z" fill="#006D77"/>
<path d="M29.7571 22.4534L30.2712 21.6228L31.1019 22.137L30.5879 22.9677L29.7571 22.4534Z" fill="#006D77"/>
<path d="M31.5845 22.0235L32.0986 21.1929L32.9292 21.707L32.4151 22.5376L31.5845 22.0235Z" fill="#006D77"/>
<path d="M28.2661 19.8181C28.2752 19.8734 28.2836 19.9293 28.291 19.9851L29.0292 20.4418L29.5433 19.6112L28.7125 19.0969L28.2661 19.8181Z" fill="#006D77"/>
<path d="M28.1655 19.3157L28.4148 18.9129L27.9705 18.6379C28.0458 18.8592 28.1109 19.0852 28.1655 19.3158L28.1655 19.3157Z" fill="#006D77"/>
<path d="M31.1541 20.1961L31.6681 19.3655L32.4987 19.8796L31.9847 20.7102L31.1541 20.1961Z" fill="#006D77"/>
<path d="M29.3267 20.6265L29.8407 19.7959L30.6715 20.3101L30.1574 21.1408L29.3267 20.6265Z" fill="#006D77"/>
<path d="M30.0254 19.4979L30.5395 18.6672L31.3702 19.1815L30.8562 20.0121L30.0254 19.4979Z" fill="#006D77"/>
<path d="M29.1477 17.3938L29.2971 17.4863L29.4241 17.2808C29.3315 17.3153 29.2392 17.3525 29.1477 17.3938H29.1477Z" fill="#006D77"/>
<path d="M30.187 24.2807L30.7013 23.45L31.5319 23.964L31.0176 24.7948L30.187 24.2807Z" fill="#006D77"/>
<path d="M28.5762 23.6956L27.9877 23.3315C27.8138 23.8566 27.5805 24.36 27.2922 24.832C27.4145 24.9442 27.5451 25.0468 27.6831 25.1389L28.5762 23.6956Z" fill="#006D77"/>
<path d="M27.9779 20.2947C27.8846 19.3725 27.6079 18.4782 27.1639 17.6643L26.6414 19.3601L27.9779 20.2947Z" fill="#006D77"/>
<path d="M28.897 18.7991L29.4111 17.9685L30.2418 18.4827L29.7277 19.3134L28.897 18.7991Z" fill="#006D77"/>
<path d="M31.2332 25.34L31.1315 25.2771L31.0439 25.4172C31.1076 25.393 31.1706 25.3673 31.2332 25.34Z" fill="#006D77"/>
<path d="M28.0938 22.986L28.7609 23.399L29.2745 22.5673L28.4442 22.0532L28.2323 22.3957C28.1945 22.5947 28.1477 22.7909 28.0938 22.986L28.0938 22.986Z" fill="#006D77"/>
<path d="M28.6284 21.7552L29.1425 20.9246L29.9733 21.4388L29.4592 22.2694L28.6284 21.7552Z" fill="#006D77"/>
<path d="M28.3634 21.0064C28.3634 21.1318 28.3603 21.2568 28.3541 21.3813C28.353 21.3988 28.3511 21.4177 28.35 21.4359C28.3476 21.4751 28.3442 21.5142 28.3414 21.5532L28.8447 20.7399L28.3384 20.4265C28.3534 20.6183 28.3634 20.8111 28.3634 21.0064L28.3634 21.0064Z" fill="#006D77"/>
<path d="M18.7556 20.3702L19.561 23.1084H22.4519L23.2573 20.3702L21.0064 18.6018L18.7556 20.3702Z" fill="#006D77"/>
<path d="M27.9768 21.7206C27.9871 21.6198 27.9943 21.5178 28.0001 21.4157C28.0012 21.3982 28.0031 21.3806 28.004 21.3631C28.0101 21.245 28.0131 21.126 28.0131 21.0062C28.0131 20.9177 28.0097 20.8301 28.0064 20.7424L26.4052 19.6213L23.6001 20.4468L22.7769 23.2494L24.2471 25.2102H26.6079C27.3724 24.1966 27.8453 22.9934 27.9758 21.7305C27.9763 21.7272 27.9767 21.7244 27.9769 21.7207L27.9768 21.7206Z" fill="#006D77"/>
<path d="M28.1057 26.7768L28.1656 26.7435H28.1658C27.5661 26.5696 27.018 26.2525 26.568 25.8198C26.4862 25.9132 26.4026 26.005 26.3167 26.0951C26.323 26.114 26.3258 26.134 26.3251 26.1539C26.3004 26.7565 26.2426 27.3572 26.1519 27.9534C26.7812 27.5258 27.4334 27.1329 28.1057 26.7768L28.1057 26.7768Z" fill="#006D77"/>
<path d="M22.7322 14.2156C21.5999 13.9281 20.4138 13.9281 19.2815 14.2156L21.0067 15.3662L22.7322 14.2156Z" fill="#006D77"/>
<path d="M19.2374 23.2487L18.4132 20.4461L15.6077 19.6228L14.0066 20.7438C14.0034 20.8314 14 20.919 14 21.0066C13.9984 22.5235 14.4917 23.9995 15.4052 25.2105H17.766L19.2374 23.2487Z" fill="#006D77"/>
<path d="M14.85 17.6643C14.4062 18.4782 14.1295 19.3725 14.0361 20.2947L15.3717 19.3601L14.85 17.6643Z" fill="#006D77"/>
<path d="M15.689 25.5608C16.3904 26.3802 17.2709 27.0275 18.2623 27.4526L17.7219 25.5608H15.689Z" fill="#006D77"/>
<path d="M21.1821 18.2938L23.4963 20.113L26.2974 19.2898L26.922 17.2579C26.0475 15.8813 24.7217 14.8511 23.1717 14.3438L21.1822 15.67L21.1821 18.2938Z" fill="#006D77"/>
<path d="M27.9209 18.1955L28.5991 18.6149L29.113 17.7835L28.7827 17.5791C28.4744 17.7535 28.1855 17.9601 27.9209 18.1955L27.9209 18.1955Z" fill="#006D77"/>
<path d="M18.517 20.1133L20.8312 18.2941V15.6702L18.8417 14.344C17.2916 14.8513 15.9659 15.8815 15.0913 17.2581L15.7164 19.2886L18.517 20.1133Z" fill="#006D77"/>
<path d="M33.0815 16.7713L33.0496 16.7571C33.0432 16.7541 33.0368 16.7509 33.0307 16.7473C31.3923 15.7615 29.1835 16.092 27.5043 17.5607C27.5694 17.6826 27.6308 17.807 27.6885 17.9333C29.2156 16.5819 31.2208 16.2806 32.7481 17.1991C34.7201 18.4194 35.1684 21.2765 33.7496 23.569C32.7737 25.1455 31.1414 26.0491 29.5721 26.0493L29.5723 26.0494C28.8954 26.0538 28.2298 25.8755 27.6455 25.5336C27.6388 25.5305 27.6321 25.5271 27.6256 25.5232L27.6067 25.5111L27.5804 25.4955C27.5745 25.4917 27.5686 25.4873 27.5629 25.4828C27.3996 25.3777 27.245 25.2596 27.1008 25.1297C27.0033 25.2731 26.8996 25.4129 26.7914 25.5501C27.3083 26.0499 27.963 26.3833 28.6713 26.5073C28.7434 26.5213 28.7991 26.5788 28.8108 26.6512C28.8225 26.7238 28.7878 26.7959 28.7238 26.8319C28.5787 26.9138 28.4284 26.9976 28.2761 27.0826C27.3374 27.6062 26.1697 28.2576 25.9415 28.6185L25.9387 28.6231C25.8874 28.7053 25.7792 28.7303 25.6969 28.679C25.6147 28.6279 25.5896 28.5197 25.6409 28.4374L25.6437 28.433C25.8291 28.1334 25.9121 27.1298 25.9553 26.4488C25.7521 26.6335 25.5388 26.807 25.3163 26.9681C25.2862 27.9097 25.0341 28.831 24.5806 29.6568L25.3062 30.1058C26.3009 28.6182 27.7846 27.9688 29.3524 27.2816C30.9203 26.5944 32.5459 25.8838 33.7489 24.2527C33.7644 24.2313 34.0198 23.8647 34.0764 23.7726C35.6513 21.2312 35.2035 18.0933 33.0813 16.7713L33.0815 16.7713Z" fill="#006D77"/>
<path d="M22.4958 23.4587H19.518L18.0466 25.4206L18.6725 27.6101C19.422 27.8766 20.2115 28.0129 21.0069 28.013C21.1266 28.013 21.2456 28.01 21.364 28.0039C21.3815 28.0039 21.399 28.0011 21.4165 28C21.5186 27.9942 21.6206 27.987 21.7215 27.9767C21.7248 27.9767 21.7279 27.9767 21.7313 27.9756H21.7312C22.2806 27.9187 22.8213 27.7964 23.3416 27.6115L23.9672 25.4206L22.4958 23.4587Z" fill="#006D77"/>
<path d="M25.2585 30.5111L24.2414 29.8836C24.218 29.8683 24.1984 29.8475 24.185 29.823L24.1637 29.8098L21.3989 34.2764L22.606 35.0233L25.3708 30.5568L25.3357 30.535C25.3083 30.5333 25.2819 30.525 25.2585 30.5111L25.2585 30.5111Z" fill="#006D77"/>
<path d="M26.3245 25.5608H24.2916L23.7512 27.4526C24.7426 27.0275 25.6231 26.3802 26.3245 25.5608Z" fill="#006D77"/>
<path d="M34.2083 20.3057L34.1096 20.4647L34.2235 20.5348C34.2203 20.4578 34.2155 20.3814 34.2083 20.3057H34.2083Z" fill="#006D77"/>
<path d="M33.9512 22.3391L33.2277 21.8911L32.7136 22.7219L33.5411 23.2341C33.7053 22.9491 33.8426 22.6495 33.9512 22.3391Z" fill="#006D77"/>
<path d="M33.3556 23.5318L32.5281 23.0198L32.0142 23.8504L32.7352 24.2967C32.9657 24.062 33.1735 23.8058 33.3556 23.5318Z" fill="#006D77"/>
<path d="M30.5329 25.5791L30.8338 25.0928L30.0032 24.5784L29.3152 25.6902C29.7243 25.7174 30.1353 25.6799 30.5329 25.5792L30.5329 25.5791Z" fill="#006D77"/>
<path d="M29.9313 17.1273L29.5952 17.6702L30.426 18.1843L31.1365 17.0364C30.7325 17.002 30.3256 17.0326 29.9313 17.1272L29.9313 17.1273Z" fill="#006D77"/>
<path d="M32.472 24.5457L31.83 24.1484L31.3159 24.9792L31.6038 25.1578C31.9146 24.9861 32.2058 24.7807 32.472 24.5457H32.472Z" fill="#006D77"/>
<path d="M34.2225 20.9465L33.9257 20.7627L33.4116 21.5933L34.0564 21.9929C34.1495 21.651 34.2052 21.3002 34.2225 20.9464L34.2225 20.9465Z" fill="#006D77"/>
<path d="M32.7479 17.6206L31.8525 19.0676L32.6832 19.5817L33.4642 18.3205L33.464 18.3207C33.2621 18.0524 33.0207 17.8164 32.7479 17.6206L32.7479 17.6206Z" fill="#006D77"/>
<path d="M29.7052 24.3945L28.8745 23.8804L27.9832 25.3205V25.3203C28.2819 25.4747 28.602 25.5832 28.933 25.6425L29.7052 24.3945Z" fill="#006D77"/>
<path d="M30.7239 18.369L31.5547 18.8831L32.4503 17.4361C32.1571 17.2753 31.8412 17.1597 31.5134 17.0933L30.7239 18.369Z" fill="#006D77"/>
<path d="M32.981 19.7659L33.8117 20.28L34.1245 19.7745H34.1247C34.0376 19.3744 33.8871 18.991 33.6789 18.6384L32.981 19.7659Z" fill="#006D77"/>
</svg>
